<?xml version="1.0" encoding="iso-8859-1"?>
<!-- Generator: Adobe Illustrator 19.0.0, SVG Export Plug-In . SVG Version: 6.00 Build 0)  -->
<svg version="1.1" id="Capa_1" xmlns="http://www.w3.org/2000/svg" xmlns:xlink="http://www.w3.org/1999/xlink" x="0px" y="0px"
	 viewBox="0 0 512.021 512.021" style="enable-background:new 0 0 512.021 512.021;" xml:space="preserve">
<g>
	<g>
		<path d="M509.736,385.128l-78.4-130.592l-86.656-144.16c-4.544-7.552-14.368-9.984-21.984-5.472l-92.416,55.552
			c-7.552,4.576-10.016,14.368-5.472,21.952l131.552,219.2c2.912,4.832,8.096,7.776,13.728,7.776h125.92
			c5.76,0,11.104-3.104,13.952-8.128C512.776,396.264,512.712,390.087,509.736,385.128z M379.176,377.384L379.176,377.384
			L260.488,179.656l65.024-39.072l142.24,236.8H379.176z"/>
	</g>
</g>
<g>
	<g>
		<path d="M339.656,385.16l-30.752-51.36c0,0,0,0,0-0.032l-75.488-125.6c-2.176-3.648-5.728-6.272-9.856-7.296
			c-4.096-1.024-8.48-0.352-12.096,1.824L119.08,258.28c-3.648,2.176-6.336,5.728-7.36,9.856c-1.024,4.128-0.384,8.48,1.792,12.128
			l72.928,121.376c2.912,4.8,8.128,7.744,13.728,7.744h125.824c5.728,0,11.04-3.104,13.856-8.096
			C342.696,396.264,342.632,390.087,339.656,385.16z M209.224,377.384l-60.032-99.872l65.056-39.136l83.52,139.008H209.224z"/>
	</g>
</g>
<g>
	<g>
		<path d="M169.768,385.16l-25.792-42.976l-21.76-36.16c-4.544-7.584-14.336-10.112-21.952-5.472l-92.512,55.52
			c-7.552,4.544-10.016,14.4-5.472,21.952l14.144,23.584c2.912,4.832,8.096,7.776,13.728,7.776h125.92
			c5.76,0,11.072-3.104,13.888-8.096C172.808,396.296,172.744,390.12,169.768,385.16z M39.208,377.384l-1.28-2.08l65.12-39.104
			l24.768,41.184H39.208z"/>
	</g>
</g>
<g>
</g>
<g>
</g>
<g>
</g>
<g>
</g>
<g>
</g>
<g>
</g>
<g>
</g>
<g>
</g>
<g>
</g>
<g>
</g>
<g>
</g>
<g>
</g>
<g>
</g>
<g>
</g>
<g>
</g>
</svg>
