<?xml version="1.0" encoding="iso-8859-1"?>
<!-- Generator: Adobe Illustrator 19.0.0, SVG Export Plug-In . SVG Version: 6.00 Build 0)  -->
<svg version="1.1" id="Capa_1" xmlns="http://www.w3.org/2000/svg" xmlns:xlink="http://www.w3.org/1999/xlink" x="0px" y="0px"
	 viewBox="0 0 511.999 511.999" style="enable-background:new 0 0 511.999 511.999;" xml:space="preserve">
<g>
	<g>
		<path d="M438.345,477.74l-4.855-24.376c-0.808-4.063-4.756-6.701-8.818-5.891c-4.063,0.809-6.7,4.757-5.892,8.818l4.855,24.377
			c1.684,8.46-4.792,16.333-13.405,16.333h-43.815v-34.058c0-4.143-3.357-7.499-7.499-7.499c-4.142,0-7.499,3.357-7.499,7.499V497
			H222.153c-4.143,0-7.499,3.357-7.499,7.499c0,4.143,3.357,7.499,7.499,7.499H410.23C428.325,512,441.872,495.455,438.345,477.74z"
			/>
	</g>
</g>
<g>
	<g>
		<path d="M426.651,419.006l-2.556-12.828c-4.972-24.908-23.101-35.113-33.466-38.98c-3.882-1.441-10.466-2.92-86.766-21.829v-5.208
			h81.19c8.386,0,15.209-6.822,15.209-15.209v-97.657c5.03-6.993,7.887-15.521,7.887-24.569c0-9.048-2.858-17.576-7.888-24.57
			v-34.298c0-38.513-15.08-74.716-42.463-101.941C306.344-9.244,225.791-14.014,169.051,30.04c-3.271,2.54-3.864,7.251-1.324,10.522
			c2.541,3.273,7.251,3.866,10.522,1.324C228.896,2.564,301.094,6.688,347.222,52.552c24.53,24.39,38.039,56.816,38.039,91.305
			v18.715c-2.142-5.596-6.591-10.041-12.187-12.181v-6.534c0-64.308-52.319-116.627-116.628-116.627S139.818,79.549,139.818,143.857
			v6.534c-5.597,2.14-10.046,6.588-12.188,12.183v-17.218c0-29.233,9.424-56.905,27.254-80.025c2.529-3.28,1.921-7.988-1.359-10.519
			c-3.279-2.527-7.988-1.922-10.519,1.359c-19.871,25.769-30.375,56.608-30.375,89.184v32.798c-5.03,6.993-7.888,15.522-7.888,24.57
			c0,9.049,2.858,17.577,7.888,24.571v94.488c0,10.133,8.243,18.378,18.377,18.378h77.404v5.143
			c-6.31,1.56-78.189,19.375-86.268,21.727l0.009,0.03c-0.167,0.061-0.329,0.126-0.486,0.192l-0.021-0.057
			c-10.364,3.867-28.495,14.072-33.467,38.983c-6.002,30.139-10.207,51.128-14.539,72.762c-3.425,17.117,9.675,33.056,27.098,33.056
			h86.418c4.143,0,7.499-3.357,7.499-7.499c0-4.143-3.357-7.499-7.499-7.499h-26.311V462.94c0-4.143-3.357-7.499-7.499-7.499
			c-4.143,0-7.499,3.357-7.499,7.499v34.058h-45.107c-7.98,0-13.954-7.301-12.39-15.114c5.342-26.686,9.183-45.868,14.54-72.773
			c4.947-24.778,27.886-28.777,29.185-29.373l46.06-11.415l20.797,24.548c0.001,0.001,0.001,0.002,0.002,0.002l27.087,31.973
			c7.795,9.206,18.34,14.991,30.06,15.005c0.015,0,0.028,0,0.043,0c11.177,0,21.837-5.293,30.023-14.907l48.168-56.575
			l46.047,11.411l0.003-0.008c0.571,0.198,0.74,0.23,5.259,1.568c7.476,2.841,20.253,10.184,23.764,27.771l2.555,12.824
			c0.81,4.063,4.761,6.7,8.819,5.891C424.823,427.017,427.46,423.068,426.651,419.006z M204.4,299.829h22.513
			c3.033,7.933,10.703,13.593,19.69,13.593h19.051c11.631,0,21.093-9.462,21.093-21.092c0-11.631-9.462-21.093-21.093-21.093
			h-19.051c-8.987,0-16.658,5.66-19.69,13.594h-24.487c-5.309,0-10.457-0.706-15.294-2.035
			c-12.015-15.612-18.721-34.986-18.721-54.856v-17.88c0-1.479,0.594-2.852,1.671-3.866c0.986-0.929,2.247-1.43,3.581-1.43
			c0.107,0,0.215,0.003,0.323,0.01c3.526,0.213,6.972,0.315,10.362,0.315c68.267-0.006,108.914-41.655,125.117-62.776
			c8.492,15.191,21.061,19.896,30.359,21.119c2.462,0.323,4.318,2.425,4.318,4.89v60.974
			C344.142,301.42,261.403,342.555,204.4,299.829z M240.511,292.33c0-3.36,2.734-6.094,6.094-6.094h19.051
			c3.36,0,6.095,2.734,6.095,6.094c0,3.36-2.734,6.094-6.095,6.094h-19.051C243.244,298.423,240.511,295.69,240.511,292.33z
			 M386.667,185.135c0.152,0.212,0.315,0.414,0.487,0.609c3.796,4.706,5.995,10.637,5.995,16.981c0,6.348-2.201,12.282-6,16.988
			c-0.171,0.193-0.332,0.393-0.482,0.603V185.135z M385.262,242.877v82.076c0,0.116-0.094,0.21-0.21,0.21h-81.19v-4.588
			c25.838-13.454,45.117-37.529,52.257-66.377c2.848,1.436,6.054,2.264,9.454,2.264
			C374.558,256.462,382.227,250.806,385.262,242.877z M359.479,170.082c0-3.36,2.734-6.095,6.095-6.095
			c3.36,0,6.094,2.734,6.094,6.095v0.645v63.998v0.646c0,3.36-2.734,6.094-6.094,6.094c-3.36,0-6.095-2.733-6.095-6.094V170.082z
			 M256.446,42.229c56.039,0,101.629,45.59,101.629,101.628v6.534c-2.017,0.771-3.887,1.835-5.554,3.154
			c-2.918-2.633-6.612-4.44-10.743-4.983c-9.002-1.185-15.823-6.427-20.27-15.581c-4.292-8.837-16.444-9.955-22.259-2.039
			c-13.401,18.239-50.659,59.146-114.992,59.144c-3.061,0-6.185-0.092-9.368-0.284c-2.194-0.133-4.38,0.115-6.476,0.683v-20.404
			c0-8.987-5.66-16.659-13.594-19.691v-6.533h-0.001C154.817,87.819,200.408,42.229,256.446,42.229z M158.877,261.201
			c-1.133-2.165-2.038-4.41-2.702-6.713c0.205-0.095,0.409-0.193,0.61-0.294C157.399,256.554,158.101,258.89,158.877,261.201z
			 M141.224,234.725v-63.998v-0.645c0-3.36,2.734-6.095,6.095-6.095c3.36,0,6.094,2.734,6.094,6.095v39.978v17.88v7.431
			c0,3.36-2.733,6.094-6.094,6.094c-3.36,0-6.095-2.733-6.095-6.094V234.725z M126.225,220.316
			c-0.152-0.212-0.315-0.415-0.487-0.609c-3.796-4.705-5.996-10.638-5.996-16.982s2.2-12.276,5.996-16.981
			c0.173-0.195,0.336-0.397,0.487-0.609V220.316z M131.008,325.163c-1.862,0-3.378-1.516-3.378-3.379v-78.907
			c2.286,5.973,7.194,10.655,13.326,12.6c2.012,9.228,6.643,17.826,13.547,25.066c6.426,6.741,14.61,11.89,23.79,15.169
			c2.367,2.798,4.885,5.481,7.552,8.027c6.88,6.566,14.466,12.055,22.566,16.409v5.015H131.008z M291.49,395.529l-16.765,19.69
			c-5.289,6.213-11.894,9.632-18.603,9.632c-0.008,0-0.016,0-0.023,0c-6.726-0.008-13.344-3.452-18.635-9.697l-16.627-19.625
			L291.49,395.529L291.49,395.529z M304.259,380.53h-96.13l-13.749-16.231l23.338-5.784c3.347-0.83,5.696-3.909,5.696-7.355
			c0-0.058-0.001-0.114-0.002-0.172l0.001-24.284c10.474,3.593,21.542,5.457,32.876,5.457c10.787,0,21.878-1.694,32.574-5.245
			v24.148c-0.001,0.058-0.002,0.114-0.002,0.172c0,3.447,2.35,6.451,5.696,7.279l23.489,5.822L304.259,380.53z"/>
	</g>
</g>
<g>
</g>
<g>
</g>
<g>
</g>
<g>
</g>
<g>
</g>
<g>
</g>
<g>
</g>
<g>
</g>
<g>
</g>
<g>
</g>
<g>
</g>
<g>
</g>
<g>
</g>
<g>
</g>
<g>
</g>
</svg>
